<svg xmlns="http://www.w3.org/2000/svg" width="240" height="213" fill="none"><path fill="url(#a)" d="m220.05 125.353 19.697-86.53c1.422-6.249-3.334-12.198-9.751-12.198H66.336L62.518 7.983A9.996 9.996 0 0 0 52.72 0H10C4.477 0 0 4.47 0 9.984v6.657c0 5.514 4.477 9.984 10 9.984h29.118l29.27 142.874c-7.003 4.021-11.721 11.56-11.721 20.204C56.667 202.57 67.113 213 80 213c12.887 0 23.333-10.43 23.333-23.297 0-6.521-2.686-12.412-7.01-16.641h87.353c-4.323 4.229-7.009 10.12-7.009 16.641C176.667 202.57 187.113 213 200 213c12.887 0 23.333-10.43 23.333-23.297 0-9.224-5.37-17.195-13.158-20.969l2.299-10.099c1.422-6.248-3.334-12.197-9.751-12.197H90.883l-2.728-13.313h122.144a9.997 9.997 0 0 0 9.751-7.772Z"/><defs><linearGradient id="a" x1="0" x2="240" y1="213" y2="37" gradientUnits="userSpaceOnUse"><stop stop-color="#A795F5"/><stop offset="1" stop-color="#60BFFF"/></linearGradient></defs></svg>