<svg xmlns="http://www.w3.org/2000/svg" width="1259" height="229" fill="none"><path fill="url(#a)" d="M235.891 7.507a6.73 6.73 0 0 1 9.454-1.024l76.941 61.94c2.889 2.33 3.35 6.563 1.025 9.454L207.17 222.137a6.731 6.731 0 0 1-9.455 1.024l-76.94-61.94c-2.884-2.326-3.35-6.559-1.025-9.443l3.619-4.488c3.174-.267 6.437-.379 9.6-.535 2.795-.133 5.59-.255 8.386-.378l-6.916 8.586 66.472 53.51L308.61 74.681l-66.472-53.51-63.32 78.667a81.028 81.028 0 0 1-10.358-1.08c-1.737-.3-3.463-.668-5.178-1.047l72.609-90.204ZM102.789 47.52c19.678-10.145 36.037-18.575 71.607-4.7.111.034.222.078.334.112v.01l.078.034c2.038.78 3.898 2.05 5.568 3.798 1.437 1.514 2.729 3.363 3.831 5.523.034.078.077.146.211.424.078.134.145.267.212.4.067.145.145.323.256.59a6.733 6.733 0 0 1-.724 7.139l-23.23 29.846a6.542 6.542 0 0 1-.679.801 6.739 6.739 0 0 1-9.533.067l.012-.011-.235-.234c-1.848-1.57-3.586-2.383-5.111-2.74a8.717 8.717 0 0 0-3.708-.055c-3.831.757-6.927 3.574-8.52 6.57-.523.991-.846 1.938-.913 2.74a.923.923 0 0 1-.067.29c.167 0 .323-.001.49.01v.012c11.27.646 17.963 2.126 24.69 3.607 6.381 1.403 12.795 2.819 23.942 3.398.189 0 .39-.001.591.01v.011c6.154.393 10.512 3.265 13.142 7.228l2.38-.24c.194-1.386.511-2.757.949-4.094a23.803 23.803 0 0 1 4.578-8.112 23.944 23.944 0 0 1 11.641-7.428l-1.144-11.245 9.996-1.008 1.18 11.59c1.341.194 2.668.5 3.962.92a24.013 24.013 0 0 1 8.154 4.554 23.877 23.877 0 0 1 5.785 7.308 23.773 23.773 0 0 1 1.627 4.085l11.846-1.194L257 117.48l-12.109 1.219a23.768 23.768 0 0 1-.952 4.136 23.813 23.813 0 0 1-4.578 8.111 23.953 23.953 0 0 1-11.658 7.432l1.21 11.888-9.996 1.007-1.247-12.239a24.01 24.01 0 0 1-12.098-5.47 23.707 23.707 0 0 1-7.424-11.433l-.161.016c.006.474-.006.949-.038 1.423a18.214 18.214 0 0 1-1.693 6.77c-2.673 5.624-8.085 9.834-16.014 9.533a6.85 6.85 0 0 1-2.193-.323l.011-.022c-.401-.067-9.611.501-21.026.947-14.165.557-30.635 1.325-35.357 1.682a6.521 6.521 0 0 1-1.604 0v-.012l-82.743-9.789-.344-.033v-.023a14.506 14.506 0 0 1-2.755-.626 21.063 21.063 0 0 1-2.714 2.264c-3.987 2.806-9.176 4.365-13.475 3.975v.023l-2.795-.245c-4.7-.412-8.753-2.874-11.526-6.504-2.595-3.419-4.032-7.896-3.664-12.617l3.586-48.298v-.023c.245-3.118 1.225-6.003 2.75-8.453 1.649-2.65 3.887-4.777 6.493-6.169a15.644 15.644 0 0 1 4.265-1.515 15.342 15.342 0 0 1 4.5-.278l2.794.245c4.589.401 9.878 3.887 13.631 8.319.058.068.114.137.17.205a6.44 6.44 0 0 1 1.858-.172v.022c31.014 1.392 47.907-7.316 62.685-14.933Zm122.836 54.275a14.505 14.505 0 0 0-11.02.854 14.424 14.424 0 0 0-4.427 3.465 14.327 14.327 0 0 0-3.424 10.453c.147 1.88.667 3.713 1.526 5.394a14.382 14.382 0 0 0 3.484 4.404 14.478 14.478 0 0 0 10.507 3.405 14.516 14.516 0 0 0 5.425-1.518 14.424 14.424 0 0 0 4.427-3.465 14.323 14.323 0 0 0 3.422-10.451 14.32 14.32 0 0 0-5.008-9.801 14.463 14.463 0 0 0-4.912-2.74Zm-56.073-46.402c-29.979-11.693-43.878-4.521-60.605 4.098-16.047 8.275-34.378 17.73-68.131 16.471a.886.886 0 0 0-.145.145.767.767 0 0 0-.2.457l-6.715-.346 6.726.367a7.3 7.3 0 0 1-.044.49l-2.662 40.871-6.715-.423 6.726.434c0 .078-.011.145-.022.223v.044c.011.033.044.111.111.245a.97.97 0 0 0 .29.356c.133.09.279.157.446.179v-.022l.066.01v-.01l.212.033 82.107 9.711c4.989-.345 21.215-1.092 35.503-1.649 10.535-.412 20.168-.657 24.032-.49v-.167c1.838.111 3.029-.701 3.552-1.826a5.154 5.154 0 0 0 .468-1.837 4.923 4.923 0 0 0-.234-1.893c-.378-1.17-1.447-2.127-3.251-2.239v.023a4.745 4.745 0 0 1-.413-.045c-12.194-.624-19.198-2.171-26.169-3.708-6.137-1.359-12.251-2.707-22.552-3.297l.368-6.715-.39 6.727a9.185 9.185 0 0 1-.969-.123c-4.811-.624-8.129-2.863-10.145-6.07-1.626-2.583-2.239-5.579-1.972-8.675.223-2.594 1.07-5.312 2.44-7.895 3.24-6.136 9.722-11.916 17.829-13.52a22 22 0 0 1 9.343.167 23.573 23.573 0 0 1 5.624 2.117l16.682-21.427c-.033-.045-.067-.078-.1-.111-.268-.279-.479-.446-.646-.513l-.012.011a7.336 7.336 0 0 1-.433-.178ZM20.503 67.243c-.278-.023-.49-.023-.656.01a2.43 2.43 0 0 0-.635.257c-.557.29-1.036.757-1.392 1.325-.412.657-.68 1.47-.747 2.406l-3.585 48.297v.023c-.112 1.392.256 2.628.924 3.508.512.668 1.214 1.124 1.993 1.191l2.795.245.023.023c1.247.111 3.007-.513 4.555-1.604.429-.303.81-.623 1.119-.936a14.722 14.722 0 0 1-.273-1.114 14.471 14.471 0 0 1-.29-3.44c0-.123 0-.257.012-.379h.01v-.066l2.662-40.827c0-.11 0-.233.011-.344h.011v-.056a14.12 14.12 0 0 1 .997-4.439l-.216-.261c-1.682-1.971-3.486-3.485-4.522-3.575l-2.796-.245Z"/><g filter="url(#b)"><path fill="url(#c)" d="M387.6 97.96v-28.8c0-1.92-.32-3.147-.96-3.68-.533-.64-1.813-.96-3.84-.96h-26.56V52.84h30.88c5.227 0 9.013 1.227 11.36 3.68 2.453 2.347 3.68 5.813 3.68 10.4v33.28c0 4.587-1.227 8.107-3.68 10.56-2.347 2.347-6.133 3.52-11.36 3.52h-25.76v-11.52h21.44c2.027 0 3.307-.32 3.84-.96.64-.64.96-1.92.96-3.84Zm-33.28-45.12h14.4V153h-14.4V52.84Zm72.785 63.84h-14.4V89.16c0-4.693 1.173-8.213 3.52-10.56 2.347-2.453 5.973-3.68 10.88-3.68h5.76c3.2 0 5.76.853 7.68 2.56s2.88 4.48 2.88 8.32v10.72h-.64V92.2c0-2.027-.427-3.467-1.28-4.32-.853-.853-2.187-1.28-4-1.28h-5.6c-1.92 0-3.2.32-3.84.96-.64.533-.96 1.76-.96 3.68v25.44Zm30.08 36.32h-14.4V74.92h14.4V153Zm-44.48-41.76h14.4v25.44c0 1.813.32 3.04.96 3.68.64.64 1.92.96 3.84.96h5.6c1.813 0 3.147-.373 4-1.12.853-.853 1.28-2.347 1.28-4.48v-4.16h.64v10.56c0 3.84-.96 6.613-2.88 8.32-1.92 1.707-4.48 2.56-7.68 2.56h-5.76c-4.907 0-8.533-1.173-10.88-3.52-2.347-2.453-3.52-5.973-3.52-10.56v-27.68Zm52.856-36.32h14.72l11.84 65.44 11.04-65.44h14.56l-16.48 85.6c-1.066 4.693-3.093 8.267-6.08 10.72-2.88 2.56-6.986 3.84-12.32 3.84h-9.6v-11.52h6.56c2.24 0 4.054-.373 5.44-1.12 1.494-.64 2.454-2.027 2.88-4.16l1.6-6.56h-7.84l-16.32-76.8ZM570.489 153h-14.4V91.24c0-1.92-.32-3.147-.96-3.68-.64-.64-1.92-.96-3.84-.96h-5.6c-1.814 0-3.147.427-4 1.28-.854.853-1.28 2.293-1.28 4.32v5.12h-.64V85.8c0-3.84.96-6.613 2.88-8.32 1.92-1.707 4.48-2.56 7.68-2.56h5.76c4.906 0 8.533 1.227 10.88 3.68 2.346 2.347 3.52 5.867 3.52 10.56V153Zm-30.08 0h-14.4V74.92h14.4V153Zm60.16 0h-14.56V91.24c0-1.92-.32-3.147-.96-3.68-.534-.64-1.76-.96-3.68-.96h-5.76c-1.707 0-2.987.427-3.84 1.28-.854.853-1.28 2.293-1.28 4.32v5.12h-1.28l-.32-11.36c-.107-3.84.906-6.613 3.04-8.32 2.24-1.813 5.066-2.72 8.48-2.72h5.6c5.013 0 8.693 1.227 11.04 3.68 2.346 2.347 3.52 5.867 3.52 10.56V153Zm27.012-62.08V137c0 1.813.32 3.04.96 3.68.64.64 1.92.96 3.84.96h4V153h-8c-5.12 0-8.906-1.173-11.36-3.52-2.346-2.453-3.52-5.973-3.52-10.56V89.16c0-4.693 1.174-8.213 3.52-10.56 2.454-2.453 6.24-3.68 11.36-3.68h8.8v11.36h-4.8c-1.92 0-3.2.32-3.84.96-.64.533-.96 1.76-.96 3.68Zm17.28 25.44V90.92c0-1.92-.32-3.147-.96-3.68-.533-.64-1.76-.96-3.68-.96h-5.12V74.92h8.96c5.227 0 9.014 1.227 11.36 3.68 2.454 2.347 3.68 5.867 3.68 10.56v27.2h-14.24Zm-.32 20.48v-6.4h14.08v8.48c0 4.587-1.173 8.107-3.52 10.56-2.346 2.347-6.133 3.52-11.36 3.52h-8.64v-11.36h4.64c2.027 0 3.307-.32 3.84-.96.64-.64.96-1.92.96-3.84Zm14.56-28.96v10.56h-40.48v-10.56h40.48ZM685.878 153h-14.4V74.92h14.4V153Zm30.08 0h-14.4V91.24c0-1.92-.32-3.147-.96-3.68-.64-.64-1.92-.96-3.84-.96h-5.6c-1.814 0-3.147.427-4 1.28-.854.853-1.28 2.293-1.28 4.32v5.12h-.64V85.8c0-3.84.96-6.613 2.88-8.32 1.92-1.707 4.48-2.56 7.68-2.56h5.76c4.906 0 8.533 1.227 10.88 3.68 2.346 2.347 3.52 5.867 3.52 10.56V153Zm29.637-91.36v74.4c0 1.813.32 3.04.96 3.68.64.64 1.867.96 3.68.96h6.08V153h-10.24c-5.227 0-9.067-1.173-11.52-3.52-2.347-2.453-3.52-5.973-3.52-10.56V61.64h14.56Zm10.72 13.28V86.6h-32.64V74.92h32.64ZM822.6 97.96v-28.8c0-1.92-.32-3.147-.96-3.68-.533-.64-1.813-.96-3.84-.96h-26.56V52.84h30.88c5.227 0 9.013 1.227 11.36 3.68 2.453 2.347 3.68 5.813 3.68 10.4v33.28c0 4.587-1.227 8.107-3.68 10.56-2.347 2.347-6.133 3.52-11.36 3.52h-25.76v-11.52h21.44c2.027 0 3.307-.32 3.84-.96.64-.64.96-1.92.96-3.84Zm-33.28-45.12h14.4V153h-14.4V52.84Zm89.585 21.92V87.4h-5.76c-6.72 0-10.08 3.893-10.08 11.68v3.36h-.64v-13.6c0-2.24.48-4.427 1.44-6.56 1.067-2.24 2.56-4.053 4.48-5.44 2.027-1.387 4.48-2.08 7.36-2.08h3.2ZM863.065 153h-14.4V74.92h14.4V153Zm55.405-25.6V91.08c0-2.027-.32-3.307-.96-3.84-.533-.64-1.813-.96-3.84-.96h-4.8V74.92h8.96c5.227 0 9.013 1.227 11.36 3.68 2.347 2.347 3.52 5.867 3.52 10.56v38.24h-14.24Zm0 9.44v-16.16h14.24v18.24c0 4.587-1.173 8.107-3.52 10.56-2.347 2.347-6.133 3.52-11.36 3.52h-9.76v-11.36h5.6c2.027 0 3.307-.32 3.84-.96.64-.64.96-1.92.96-3.84Zm-18.24-45.76v36.48h-14.24v-38.4c0-4.693 1.173-8.213 3.52-10.56 2.347-2.453 6.08-3.68 11.2-3.68h9.12v11.36h-4.8c-1.92 0-3.2.32-3.84.96-.64.533-.96 1.813-.96 3.84Zm0 28.64v17.12c0 1.92.32 3.2.96 3.84.64.64 1.92.96 3.84.96h4.32V153h-8.64c-5.12 0-8.853-1.173-11.2-3.52-2.347-2.453-3.52-5.973-3.52-10.56v-19.2h14.24Zm59.219-28.48v45.44c0 1.813.32 3.04.96 3.68.64.64 1.92.96 3.84.96h3.68V153h-8c-5.12 0-8.907-1.173-11.36-3.52-2.347-2.453-3.52-5.973-3.52-10.56V89.16c0-4.693 1.173-8.213 3.52-10.56 2.453-2.453 6.24-3.68 11.36-3.68h8.8V86.6h-4.48c-1.92 0-3.2.32-3.84.96-.64.533-.96 1.76-.96 3.68Zm16.48 8.32v-8.32c0-1.92-.32-3.147-.96-3.68-.64-.64-1.92-.96-3.84-.96h-4.64V74.92h8.64c5.226 0 9.013 1.227 11.36 3.68 2.453 2.347 3.68 5.867 3.68 10.56v10.4h-14.24Zm0 37.12v-8.32h14.24v10.56c0 4.587-1.227 8.107-3.68 10.56-2.347 2.347-6.134 3.52-11.36 3.52h-8.64v-11.68h4.64c1.92 0 3.2-.32 3.84-.96.64-.64.96-1.867.96-3.68Zm40.091-45.76V137c0 1.813.32 3.04.96 3.68.64.64 1.92.96 3.84.96h4V153h-8c-5.12 0-8.91-1.173-11.36-3.52-2.35-2.453-3.52-5.973-3.52-10.56V89.16c0-4.693 1.17-8.213 3.52-10.56 2.45-2.453 6.24-3.68 11.36-3.68h8.8v11.36h-4.8c-1.92 0-3.2.32-3.84.96-.64.533-.96 1.76-.96 3.68Zm17.28 25.44V90.92c0-1.92-.32-3.147-.96-3.68-.53-.64-1.76-.96-3.68-.96h-5.12V74.92h8.96c5.23 0 9.01 1.227 11.36 3.68 2.45 2.347 3.68 5.867 3.68 10.56v27.2h-14.24Zm-.32 20.48v-6.4h14.08v8.48c0 4.587-1.17 8.107-3.52 10.56-2.35 2.347-6.13 3.52-11.36 3.52h-8.64v-11.36h4.64c2.03 0 3.31-.32 3.84-.96.64-.64.96-1.92.96-3.84Zm14.56-28.96v10.56h-40.48v-10.56h40.48Zm38.46 29.44v-12.96c0-1.92-.32-3.147-.96-3.68-.54-.64-1.82-.96-3.84-.96h-8.16c-5.23 0-9.02-1.173-11.36-3.52-2.35-2.453-3.53-5.973-3.53-10.56V89.16c0-4.693 1.18-8.213 3.53-10.56 2.45-2.453 6.24-3.68 11.36-3.68h11.68c5.22 0 9.01 1.227 11.36 3.68 2.45 2.347 3.68 5.867 3.68 10.56v7.52h-14.08V90.6c0-1.92-.32-3.147-.96-3.68-.54-.64-1.82-.96-3.84-.96h-3.84c-1.92 0-3.2.32-3.84.96-.64.533-.96 1.76-.96 3.68v13.44c0 1.92.32 3.2.96 3.84.64.533 1.92.8 3.84.8h8.32c5.12 0 8.85 1.227 11.2 3.68 2.34 2.347 3.52 5.867 3.52 10.56v16c0 4.587-1.23 8.107-3.68 10.56-2.35 2.347-6.08 3.52-11.2 3.52h-11.84c-5.12 0-8.91-1.173-11.36-3.52-2.35-2.453-3.52-5.973-3.52-10.56v-7.68h14.24v6.08c0 1.813.32 3.04.96 3.68.64.64 1.86.96 3.68.96h3.84c2.02 0 3.3-.32 3.84-.96.64-.64.96-1.867.96-3.68Zm52.5 0v-12.96c0-1.92-.32-3.147-.96-3.68-.54-.64-1.82-.96-3.84-.96h-8.16c-5.23 0-9.02-1.173-11.36-3.52-2.35-2.453-3.53-5.973-3.53-10.56V89.16c0-4.693 1.18-8.213 3.53-10.56 2.45-2.453 6.24-3.68 11.36-3.68h11.68c5.22 0 9.01 1.227 11.36 3.68 2.45 2.347 3.68 5.867 3.68 10.56v7.52h-14.08V90.6c0-1.92-.32-3.147-.96-3.68-.54-.64-1.82-.96-3.84-.96h-3.84c-1.92 0-3.2.32-3.84.96-.64.533-.96 1.76-.96 3.68v13.44c0 1.92.32 3.2.96 3.84.64.533 1.92.8 3.84.8h8.32c5.12 0 8.85 1.227 11.2 3.68 2.34 2.347 3.52 5.867 3.52 10.56v16c0 4.587-1.23 8.107-3.68 10.56-2.35 2.347-6.08 3.52-11.2 3.52h-11.84c-5.12 0-8.91-1.173-11.36-3.52-2.35-2.453-3.52-5.973-3.52-10.56v-7.68h14.24v6.08c0 1.813.32 3.04.96 3.68.64.64 1.86.96 3.68.96h3.84c2.02 0 3.3-.32 3.84-.96.64-.64.96-1.867.96-3.68Zm58.1-9.92V91.08c0-2.027-.32-3.307-.96-3.84-.54-.64-1.82-.96-3.84-.96h-4.8V74.92h8.96c5.22 0 9.01 1.227 11.36 3.68 2.34 2.347 3.52 5.867 3.52 10.56v38.24h-14.24Zm0 9.44v-16.16h14.24v18.24c0 4.587-1.18 8.107-3.52 10.56-2.35 2.347-6.14 3.52-11.36 3.52h-9.76v-11.36h5.6c2.02 0 3.3-.32 3.84-.96.64-.64.96-1.92.96-3.84Zm-18.24-45.76v36.48h-14.24v-38.4c0-4.693 1.17-8.213 3.52-10.56 2.34-2.453 6.08-3.68 11.2-3.68h9.12v11.36h-4.8c-1.92 0-3.2.32-3.84.96-.64.533-.96 1.813-.96 3.84Zm0 28.64v17.12c0 1.92.32 3.2.96 3.84.64.64 1.92.96 3.84.96h4.32V153h-8.64c-5.12 0-8.86-1.173-11.2-3.52-2.35-2.453-3.52-5.973-3.52-10.56v-19.2h14.24Zm76.01-44.96V87.4h-5.76c-6.72 0-10.08 3.893-10.08 11.68v3.36h-.64v-13.6c0-2.24.48-4.427 1.44-6.56 1.07-2.24 2.56-4.053 4.48-5.44 2.03-1.387 4.48-2.08 7.36-2.08h3.2ZM1238.53 153h-14.4V74.92h14.4V153Z"/></g><defs><linearGradient id="a" x1="0" x2="259.295" y1="224.644" y2="-24.902" gradientUnits="userSpaceOnUse"><stop stop-color="#A795F5"/><stop offset="1" stop-color="#60BFFF"/></linearGradient><linearGradient id="c" x1="346" x2="1270.11" y1="228.693" y2="119.333" gradientUnits="userSpaceOnUse"><stop stop-color="#70D9F5"/><stop offset="1" stop-color="#79EBBE"/></linearGradient><filter id="b" width="908.054" height="130.24" x="350.32" y="52.84" color-interpolation-filters="sRGB" filterUnits="userSpaceOnUse"><feFlood flood-opacity="0" result="BackgroundImageFix"/><feColorMatrix in="SourceAlpha" result="hardAlpha" values="0 0 0 0 0 0 0 0 0 0 0 0 0 0 0 0 0 0 127 0"/><feOffset dy="4"/><feGaussianBlur stdDeviation="2"/><feComposite in2="hardAlpha" operator="out"/><feColorMatrix values="0 0 0 0 1 0 0 0 0 1 0 0 0 0 1 0 0 0 0.25 0"/><feBlend in2="BackgroundImageFix" result="effect1_dropShadow_6_40"/><feBlend in="SourceGraphic" in2="effect1_dropShadow_6_40" result="shape"/></filter></defs></svg>